<svg width="48" height="48" viewBox="0 0 48 48" fill="none" xmlns="http://www.w3.org/2000/svg">
<path d="M24.831 0.251229C24.5848 0.0874044 24.2957 0 24 0C23.7043 0 23.4152 0.0874044 23.169 0.251229L0.669 15.2515C0.401241 15.43 0.198003 15.6899 0.0893075 15.9929C-0.0193883 16.2958 -0.0277786 16.6256 0.0653759 16.9337C0.15853 17.2417 0.34829 17.5117 0.606626 17.7036C0.864961 17.8955 1.17817 17.9993 1.5 17.9995H7.125V38.9999H4.5C4.10218 38.9999 3.72064 39.1579 3.43934 39.4392C3.15804 39.7205 3 40.102 3 40.4999C3 40.8977 3.15804 41.2792 3.43934 41.5606C3.72064 41.8419 4.10218 41.9999 4.5 41.9999H43.5C43.8978 41.9999 44.2794 41.8419 44.5607 41.5606C44.842 41.2792 45 40.8977 45 40.4999C45 40.102 44.842 39.7205 44.5607 39.4392C44.2794 39.1579 43.8978 38.9999 43.5 38.9999H40.875V17.9995H46.5C46.8218 17.9993 47.135 17.8955 47.3934 17.7036C47.6517 17.5117 47.8415 17.2417 47.9346 16.9337C48.0278 16.6256 48.0194 16.2958 47.9107 15.9929C47.802 15.6899 47.5988 15.43 47.331 15.2515L24.831 0.251229ZM37.125 17.9995V38.9999H33.375V17.9995H37.125ZM29.625 17.9995V38.9999H25.875V17.9995H29.625ZM22.125 17.9995V38.9999H18.375V17.9995H22.125ZM14.625 17.9995V38.9999H10.875V17.9995H14.625ZM24 11.9994C23.2044 11.9994 22.4413 11.6833 21.8787 11.1207C21.3161 10.5581 21 9.79503 21 8.99937C21 8.20371 21.3161 7.44063 21.8787 6.87802C22.4413 6.3154 23.2044 5.99932 24 5.99932C24.7956 5.99932 25.5587 6.3154 26.1213 6.87802C26.6839 7.44063 27 8.20371 27 8.99937C27 9.79503 26.6839 10.5581 26.1213 11.1207C25.5587 11.6833 24.7956 11.9994 24 11.9994ZM1.5 45C1.10218 45 0.720644 45.158 0.43934 45.4393C0.158035 45.7206 0 46.1021 0 46.5C0 46.8978 0.158035 47.2793 0.43934 47.5607C0.720644 47.842 1.10218 48 1.5 48H46.5C46.8978 48 47.2794 47.842 47.5607 47.5607C47.842 47.2793 48 46.8978 48 46.5C48 46.1021 47.842 45.7206 47.5607 45.4393C47.2794 45.158 46.8978 45 46.5 45H1.5Z" fill="white"/>
</svg>
